<svg width="226" height="273" viewBox="0 0 226 273" fill="none" xmlns="http://www.w3.org/2000/svg">
<circle cx="39.1343" cy="65.3682" r="17.5723" transform="rotate(-5.099 39.1343 65.3682)" fill="#40ADC5"/>
<path d="M32.4614 30.1435C33.0181 36.3831 28.4113 41.8927 22.1716 42.4494C15.932 43.0062 10.4224 38.3993 9.86566 32.1597C9.3089 25.92 13.9158 20.4105 20.1554 19.8537C26.395 19.2969 31.9046 23.9038 32.4614 30.1435Z" fill="#7AC8D0"/>
<circle cx="6.89363" cy="6.89357" r="6.35405" transform="rotate(-5.099 6.89363 6.89357)" fill="#95DCE3"/>
<path d="M199.72 78.956C213.846 84.943 220.629 101.324 214.871 115.545L162.611 244.62C156.854 258.841 140.735 265.515 126.61 259.528C112.485 253.541 105.701 237.16 111.459 222.939L163.719 93.864C169.476 79.6435 185.595 72.969 199.72 78.956Z" fill="#7AC8D0"/>
<path d="M38.8478 122.337C31.1999 109.215 35.6373 92.3778 48.759 84.7299C61.8807 77.082 78.7178 81.5194 86.3657 94.6411L160.887 222.5C168.039 234.77 163.89 250.515 151.619 257.666L150.078 258.565C136.956 266.213 120.119 261.776 112.471 248.654L38.8478 122.337Z" fill="#40ADC5"/>
</svg>
